{"title":"Get Smart DVDRip 500 MB mkv","uid":7091236,"size":499674173,"categoryP":"video","categoryS":"movies","magnet":"?xt=urn:btih:fc7ea012595864a7111997cdf514b1d478360889&amp;dn=Get+Smart+DVDRip+500+MB+mkv&amp;tr=udp%3A%2F%2Ftracker.openbittorrent.com%3A80&amp;tr=udp%3A%2F%2Fopen.demonii.com%3A1337&amp;tr=udp%3A%2F%2Ftracker.coppersurfer.tk%3A6969&amp;tr=udp%3A%2F%2Fexodus.desync.com%3A6969","seeders":0,"leechers":0,"uploader":"prateekkiran","files":2,"time":1331371503,"description":"Get Smart (2008)\n\nFormat                                   : Matroska\nFormat version                           : Version 2\nFile size                                : 476 MiB\nDuration                                 : 1h 49mn\nOverall bit rate mode                    : Variable\nOverall bit rate                         : 606 Kbps\nMovie name                               : Get Smart DvDrip Eng\nEncoded date                             : UTC 2012-03-10 06:30:27\nWriting application                      : mkvmerge v5.2.0 ('I can't explain') built on Dec 29 2011 19:29:57\nWriting library                          : libebml v1.2.3 + libmatroska v1.3.0\n\nVideo\n\nFormat                                   : AVC\nFormat/Info                              : Advanced Video Codec\nFormat profile                           : &lt;a class=&quot;__cf_email__&quot; href=&quot;/cdn-cgi/l/email-protection&quot; data-cfemail=&quot;276f4e404f676b130917&quot;&gt;[email&amp;#160;protected]&lt;/a&gt;&lt;script cf-hash='f9e31' type=&quot;text/javascript&quot;&gt;\n/* &lt;![CDATA[ */!function(){try{var t=&quot;currentScript&quot;in document?document.currentScript:function(){for(var t=document.getElementsByTagName(&quot;script&quot;),e=t.length;e--;)if(t[e].getAttribute(&quot;cf-hash&quot;))return t[e]}();if(t&amp;&amp;t.previousSibling){var e,r,n,i,c=t.previousSibling,a=c.getAttribute(&quot;data-cfemail&quot;);if(a){for(e=&quot;&quot;,r=parseInt(a.substr(0,2),16),n=2;a.length-n;n+=2)i=parseInt(a.substr(n,2),16)^r,e+=String.fromCharCode(i);e=document.createTextNode(e),c.parentNode.replaceChild(e,c)}}}catch(u){}}();/* ]]&gt; */&lt;/script&gt;\nFormat settings, CABAC                   : Yes\nFormat settings, ReFrames                : 3 frames\nCodec ID                                 : V_MPEG4/ISO/AVC\nDuration                                 : 1h 49mn\nBit rate mode                            : Variable\nBit rate                                 : 498 Kbps\nMaximum bit rate                         : 25.0 Mbps\nWidth                                    : 616 pixels\nHeight                                   : 336 pixels\nDisplay aspect ratio                     : 16:9\nFrame rate                               : 23.976 fps\nColor space                              : YUV\nChroma subsampling                       : 4:2:0\nBit depth                                : 8 bits\nScan type                                : Progressive\nBits/(Pixel*Frame)                       : 0.100\nStream size                              : 391 MiB (82%)\nWriting library                          : x264 core 120 r2120 0c7dab9\n\n\nAudio\nID                                       : 2\nFormat                                   : Vorbis\nFormat settings, Floor                   : 1\nCodec ID                                 : A_VORBIS\nDuration                                 : 1h 49mn\nBit rate mode                            : Variable\nBit rate                                 : 96.0 Kbps\nChannel(s)                               : 2 channels\nSampling rate                            : 48.0 KHz\nCompression mode                         : Lossy\nStream size                              : 75.5 MiB (16%)","torrent":{"xt":"urn:btih:fc7ea012595864a7111997cdf514b1d478360889","amp;dn":"Get+Smart+DVDRip+500+MB+mkv","amp;tr":["udp%3A%2F%2Ftracker.openbittorrent.com%3A80","udp%3A%2F%2Fopen.demonii.com%3A1337","udp%3A%2F%2Ftracker.coppersurfer.tk%3A6969","udp%3A%2F%2Fexodus.desync.com%3A6969"],"infoHash":"fc7ea012595864a7111997cdf514b1d478360889","infoHashBuffer":{"type":"Buffer","data":[252,126,160,18,89,88,100,167,17,25,151,205,245,20,177,212,120,54,8,137]},"announce":[],"urlList":[]}}